# xmcd CD database file
#
# Track frame offsets:
#	150
#	8855
#	26593
#	37865
#	46851
#	55145
#	67158
#	79773
#	94743
#	105674
#	117494
#	127649
#
# Disc length: 1910 seconds
#
# Revision: 0
# Processed by: cddbd v1.5.2PL0 Copyright (c) Steve Scherf et al.
# Submitted via: CDex 1.70beta2
#
DISCID=9007740c
DTITLE=Lynn, Julie - Cdn. - Put a Little Love In Your Heart
DYEAR=1900
DGENRE=Country
TTITLE0=Put a Little Love in Your Heart
TTITLE1=Don't Touch Me
TTITLE2=There Stands the Reason
TTITLE3=Dominique
TTITLE4=He Taught Me how to Yodel
TTITLE5=The Wedding
TTITLE6=The Great Pretender
TTITLE7=Hey Jude
TTITLE8=Stand by Your Man
TTITLE9=Jeannie's Afraid of the Dark
TTITLE10=Milord
TTITLE11=Unchained Melody
EXTD=
EXTT0=
EXTT1=
EXTT2=
EXTT3=
EXTT4=
EXTT5=
EXTT6=
EXTT7=
EXTT8=
EXTT9=
EXTT10=
EXTT11=
PLAYORDER=
